<mxfile host="www.draw.io" modified="2019-11-07T09:09:40.832Z" agent="Mozilla/5.0 (Windows NT 10.0; Win64; x64) AppleWebKit/537.36 (KHTML, like Gecko) Chrome/78.0.3904.87 Safari/537.36" etag="gwgUQE7oRvOarHCvHFbA" version="12.2.2" type="github" pages="1">
  <diagram name="Page-1" id="e7e014a7-5840-1c2e-5031-d8a46d1fe8dd">
    <mxGraphModel dx="3420" dy="1863" grid="1" gridSize="10" guides="1" tooltips="1" connect="1" arrows="1" fold="1" page="1" pageScale="1" pageWidth="1169" pageHeight="1654" background="#ffffff" math="0" shadow="0">
      <root>
        <mxCell id="0"/>
        <mxCell id="1" parent="0"/>
        <mxCell id="2" value="PC" style="swimlane;whiteSpace=wrap;fontFamily=Verdana;" parent="1" vertex="1">
          <mxGeometry x="160" y="130" width="280" height="1270" as="geometry"/>
        </mxCell>
        <mxCell id="5" value="" style="ellipse;shape=startState;fillColor=#000000;strokeColor=#ff0000;fontFamily=Verdana;" parent="2" vertex="1">
          <mxGeometry x="100" y="40" width="30" height="30" as="geometry"/>
        </mxCell>
        <mxCell id="6" value="" style="edgeStyle=elbowEdgeStyle;elbow=horizontal;verticalAlign=bottom;endArrow=open;endSize=8;strokeColor=#FF0000;endFill=1;rounded=0;fontFamily=Verdana;" parent="2" source="5" target="7" edge="1">
          <mxGeometry x="100" y="40" as="geometry">
            <mxPoint x="115" y="110" as="targetPoint"/>
          </mxGeometry>
        </mxCell>
        <mxCell id="7" value="App send START command" style="fontFamily=Verdana;" parent="2" vertex="1">
          <mxGeometry x="40" y="110" width="160" height="50" as="geometry"/>
        </mxCell>
        <mxCell id="PegpGRT2m6IFtcztipyP-41" value="&lt;font style=&quot;font-size: 13px&quot;&gt;&lt;b&gt;START&lt;/b&gt;&lt;/font&gt;" style="text;html=1;resizable=0;points=[];autosize=1;align=left;verticalAlign=top;spacingTop=-4;fontFamily=Verdana;" vertex="1" parent="2">
          <mxGeometry x="140" y="45" width="60" height="20" as="geometry"/>
        </mxCell>
        <mxCell id="PegpGRT2m6IFtcztipyP-96" value="Get Results" style="fontFamily=Verdana;" vertex="1" parent="2">
          <mxGeometry x="60" y="650" width="110" height="50" as="geometry"/>
        </mxCell>
        <mxCell id="PegpGRT2m6IFtcztipyP-97" value="" style="endArrow=classic;html=1;entryX=1.006;entryY=0.597;entryDx=0;entryDy=0;entryPerimeter=0;fontFamily=Verdana;" edge="1" parent="2" target="PegpGRT2m6IFtcztipyP-96">
          <mxGeometry width="50" height="50" relative="1" as="geometry">
            <mxPoint x="400" y="680" as="sourcePoint"/>
            <mxPoint x="210" y="700" as="targetPoint"/>
          </mxGeometry>
        </mxCell>
        <mxCell id="PegpGRT2m6IFtcztipyP-98" value="Get Results" style="fontFamily=Verdana;" vertex="1" parent="2">
          <mxGeometry x="60" y="820" width="110" height="50" as="geometry"/>
        </mxCell>
        <mxCell id="PegpGRT2m6IFtcztipyP-99" value="" style="endArrow=classic;html=1;entryX=1.006;entryY=0.597;entryDx=0;entryDy=0;entryPerimeter=0;fontFamily=Verdana;" edge="1" target="PegpGRT2m6IFtcztipyP-98" parent="2">
          <mxGeometry width="50" height="50" relative="1" as="geometry">
            <mxPoint x="400" y="850" as="sourcePoint"/>
            <mxPoint x="50" y="750" as="targetPoint"/>
          </mxGeometry>
        </mxCell>
        <mxCell id="PegpGRT2m6IFtcztipyP-100" value="Get Results" style="fontFamily=Verdana;" vertex="1" parent="2">
          <mxGeometry x="60" y="1000" width="110" height="50" as="geometry"/>
        </mxCell>
        <mxCell id="PegpGRT2m6IFtcztipyP-101" value="" style="endArrow=classic;html=1;entryX=1.006;entryY=0.597;entryDx=0;entryDy=0;entryPerimeter=0;fontFamily=Verdana;" edge="1" target="PegpGRT2m6IFtcztipyP-100" parent="2">
          <mxGeometry width="50" height="50" relative="1" as="geometry">
            <mxPoint x="400" y="1030" as="sourcePoint"/>
            <mxPoint x="-110" y="810" as="targetPoint"/>
          </mxGeometry>
        </mxCell>
        <mxCell id="PegpGRT2m6IFtcztipyP-104" value="DISPLAY Results" style="fontFamily=Verdana;" vertex="1" parent="2">
          <mxGeometry x="60" y="1100" width="110" height="50" as="geometry"/>
        </mxCell>
        <mxCell id="PegpGRT2m6IFtcztipyP-109" value="" style="edgeStyle=elbowEdgeStyle;elbow=horizontal;verticalAlign=bottom;endArrow=open;endSize=8;strokeColor=#FF0000;endFill=1;rounded=0;fontFamily=Verdana;" edge="1" parent="2">
          <mxGeometry x="-4024.5" y="-190" as="geometry">
            <mxPoint x="110" y="1100" as="targetPoint"/>
            <mxPoint x="110.5" y="1050" as="sourcePoint"/>
          </mxGeometry>
        </mxCell>
        <mxCell id="PegpGRT2m6IFtcztipyP-110" value="" style="edgeStyle=elbowEdgeStyle;elbow=horizontal;verticalAlign=bottom;endArrow=open;endSize=8;strokeColor=#FF0000;endFill=1;rounded=0;fontFamily=Verdana;" edge="1" parent="2">
          <mxGeometry x="-4184.5" y="-210" as="geometry">
            <mxPoint x="110" y="1200" as="targetPoint"/>
            <mxPoint x="110.50000000000011" y="1150" as="sourcePoint"/>
          </mxGeometry>
        </mxCell>
        <mxCell id="PegpGRT2m6IFtcztipyP-108" value="" style="ellipse;shape=endState;fillColor=#000000;strokeColor=#ff0000;fontFamily=Verdana;" vertex="1" parent="2">
          <mxGeometry x="90" y="1200" width="40" height="40" as="geometry"/>
        </mxCell>
        <mxCell id="PegpGRT2m6IFtcztipyP-111" value="&lt;font style=&quot;font-size: 13px&quot;&gt;&lt;b&gt;DONE&lt;/b&gt;&lt;/font&gt;" style="text;html=1;resizable=0;points=[];autosize=1;align=left;verticalAlign=top;spacingTop=-4;fontFamily=Verdana;" vertex="1" parent="2">
          <mxGeometry x="150" y="1210" width="60" height="20" as="geometry"/>
        </mxCell>
        <mxCell id="3" value="TEST TOOL" style="swimlane;whiteSpace=wrap;startSize=23;fontFamily=Verdana;" parent="1" vertex="1">
          <mxGeometry x="440" y="130" width="280" height="1270" as="geometry"/>
        </mxCell>
        <mxCell id="15" value="(A) Control relay to enable 110VAC" style="fontFamily=Verdana;" parent="3" vertex="1">
          <mxGeometry x="20" y="150" width="220" height="40" as="geometry"/>
        </mxCell>
        <mxCell id="PegpGRT2m6IFtcztipyP-46" value="(1) Check AC Input" style="fontFamily=Verdana;" vertex="1" parent="3">
          <mxGeometry x="40" y="220" width="140" height="30" as="geometry"/>
        </mxCell>
        <mxCell id="PegpGRT2m6IFtcztipyP-47" value="(2) Check 24VDC" style="fontFamily=Verdana;" vertex="1" parent="3">
          <mxGeometry x="40" y="280" width="140" height="30" as="geometry"/>
        </mxCell>
        <mxCell id="PegpGRT2m6IFtcztipyP-48" value="(3) Check 4VDC" style="fontFamily=Verdana;" vertex="1" parent="3">
          <mxGeometry x="40" y="340" width="140" height="30" as="geometry"/>
        </mxCell>
        <mxCell id="PegpGRT2m6IFtcztipyP-49" value="(4) Check ZCD" style="fontFamily=Verdana;" vertex="1" parent="3">
          <mxGeometry x="40" y="400" width="140" height="30" as="geometry"/>
        </mxCell>
        <mxCell id="PegpGRT2m6IFtcztipyP-50" value="(5) Turn ON Relays" style="fontFamily=Verdana;" vertex="1" parent="3">
          <mxGeometry x="40" y="460" width="140" height="30" as="geometry"/>
        </mxCell>
        <mxCell id="PegpGRT2m6IFtcztipyP-51" value="INPUT" style="endArrow=open;strokeColor=#FF0000;endFill=1;rounded=0;fontFamily=Verdana;" edge="1" parent="3">
          <mxGeometry relative="1" as="geometry">
            <mxPoint x="310" y="237" as="sourcePoint"/>
            <mxPoint x="180" y="237" as="targetPoint"/>
          </mxGeometry>
        </mxCell>
        <mxCell id="PegpGRT2m6IFtcztipyP-64" value="ADC" style="endArrow=open;strokeColor=#FF0000;endFill=1;rounded=0;fontFamily=Verdana;" edge="1" parent="3">
          <mxGeometry relative="1" as="geometry">
            <mxPoint x="310" y="297.00000000000006" as="sourcePoint"/>
            <mxPoint x="180" y="297.00000000000006" as="targetPoint"/>
          </mxGeometry>
        </mxCell>
        <mxCell id="PegpGRT2m6IFtcztipyP-65" value="ADC" style="endArrow=open;strokeColor=#FF0000;endFill=1;rounded=0;fontFamily=Verdana;" edge="1" parent="3">
          <mxGeometry relative="1" as="geometry">
            <mxPoint x="311" y="357" as="sourcePoint"/>
            <mxPoint x="181" y="357" as="targetPoint"/>
          </mxGeometry>
        </mxCell>
        <mxCell id="PegpGRT2m6IFtcztipyP-66" value="INPUT" style="endArrow=open;strokeColor=#FF0000;endFill=1;rounded=0;fontFamily=Verdana;" edge="1" parent="3">
          <mxGeometry relative="1" as="geometry">
            <mxPoint x="310" y="417" as="sourcePoint"/>
            <mxPoint x="180" y="417" as="targetPoint"/>
          </mxGeometry>
        </mxCell>
        <mxCell id="PegpGRT2m6IFtcztipyP-67" value="OUTPUT" style="endArrow=open;strokeColor=#FF0000;endFill=1;rounded=0;fontFamily=Verdana;" edge="1" parent="3">
          <mxGeometry relative="1" as="geometry">
            <mxPoint x="180" y="477" as="sourcePoint"/>
            <mxPoint x="310" y="477" as="targetPoint"/>
          </mxGeometry>
        </mxCell>
        <mxCell id="PegpGRT2m6IFtcztipyP-68" value="(6) Check Outputs of Relay" style="fontFamily=Verdana;" vertex="1" parent="3">
          <mxGeometry x="20" y="520" width="160" height="30" as="geometry"/>
        </mxCell>
        <mxCell id="PegpGRT2m6IFtcztipyP-69" value="INPUT" style="endArrow=open;strokeColor=#FF0000;endFill=1;rounded=0;fontFamily=Verdana;" edge="1" parent="3">
          <mxGeometry relative="1" as="geometry">
            <mxPoint x="310" y="534.5" as="sourcePoint"/>
            <mxPoint x="180" y="534.5" as="targetPoint"/>
          </mxGeometry>
        </mxCell>
        <mxCell id="PegpGRT2m6IFtcztipyP-74" value="(7) Turn OFF Relays" style="fontFamily=Verdana;" vertex="1" parent="3">
          <mxGeometry x="40" y="580" width="140" height="30" as="geometry"/>
        </mxCell>
        <mxCell id="PegpGRT2m6IFtcztipyP-75" value="OUTPUT" style="endArrow=open;strokeColor=#FF0000;endFill=1;rounded=0;fontFamily=Verdana;" edge="1" parent="3">
          <mxGeometry relative="1" as="geometry">
            <mxPoint x="180" y="597" as="sourcePoint"/>
            <mxPoint x="310" y="597" as="targetPoint"/>
          </mxGeometry>
        </mxCell>
        <mxCell id="PegpGRT2m6IFtcztipyP-76" value="(8) Check Outputs of Relay" style="fontFamily=Verdana;" vertex="1" parent="3">
          <mxGeometry x="20" y="640" width="160" height="30" as="geometry"/>
        </mxCell>
        <mxCell id="PegpGRT2m6IFtcztipyP-77" value="INPUT" style="endArrow=open;strokeColor=#FF0000;endFill=1;rounded=0;fontFamily=Verdana;" edge="1" parent="3">
          <mxGeometry relative="1" as="geometry">
            <mxPoint x="310" y="654.5" as="sourcePoint"/>
            <mxPoint x="180" y="654.5" as="targetPoint"/>
          </mxGeometry>
        </mxCell>
        <mxCell id="PegpGRT2m6IFtcztipyP-80" value="" style="edgeStyle=elbowEdgeStyle;elbow=horizontal;verticalAlign=bottom;endArrow=open;endSize=8;strokeColor=#FF0000;endFill=1;rounded=0;fontFamily=Verdana;" edge="1" parent="3">
          <mxGeometry x="-55" y="30" as="geometry">
            <mxPoint x="119.75862068965523" y="220" as="targetPoint"/>
            <mxPoint x="120" y="190" as="sourcePoint"/>
          </mxGeometry>
        </mxCell>
        <mxCell id="PegpGRT2m6IFtcztipyP-81" value="" style="edgeStyle=elbowEdgeStyle;elbow=horizontal;verticalAlign=bottom;endArrow=open;endSize=8;strokeColor=#FF0000;endFill=1;rounded=0;fontFamily=Verdana;" edge="1" parent="3">
          <mxGeometry x="-495" y="-30" as="geometry">
            <mxPoint x="119.75862068965523" y="280" as="targetPoint"/>
            <mxPoint x="120" y="250" as="sourcePoint"/>
          </mxGeometry>
        </mxCell>
        <mxCell id="PegpGRT2m6IFtcztipyP-82" value="" style="edgeStyle=elbowEdgeStyle;elbow=horizontal;verticalAlign=bottom;endArrow=open;endSize=8;strokeColor=#FF0000;endFill=1;rounded=0;fontFamily=Verdana;" edge="1" parent="3">
          <mxGeometry x="-495" y="30" as="geometry">
            <mxPoint x="119.75862068965523" y="340" as="targetPoint"/>
            <mxPoint x="120" y="310" as="sourcePoint"/>
          </mxGeometry>
        </mxCell>
        <mxCell id="PegpGRT2m6IFtcztipyP-83" value="" style="edgeStyle=elbowEdgeStyle;elbow=horizontal;verticalAlign=bottom;endArrow=open;endSize=8;strokeColor=#FF0000;endFill=1;rounded=0;fontFamily=Verdana;" edge="1" parent="3">
          <mxGeometry x="-935" y="-30" as="geometry">
            <mxPoint x="119.75862068965523" y="400" as="targetPoint"/>
            <mxPoint x="120" y="370" as="sourcePoint"/>
          </mxGeometry>
        </mxCell>
        <mxCell id="PegpGRT2m6IFtcztipyP-84" value="" style="edgeStyle=elbowEdgeStyle;elbow=horizontal;verticalAlign=bottom;endArrow=open;endSize=8;strokeColor=#FF0000;endFill=1;rounded=0;fontFamily=Verdana;" edge="1" parent="3">
          <mxGeometry x="-935" y="30" as="geometry">
            <mxPoint x="119.75862068965523" y="460" as="targetPoint"/>
            <mxPoint x="120" y="430" as="sourcePoint"/>
          </mxGeometry>
        </mxCell>
        <mxCell id="PegpGRT2m6IFtcztipyP-85" value="" style="edgeStyle=elbowEdgeStyle;elbow=horizontal;verticalAlign=bottom;endArrow=open;endSize=8;strokeColor=#FF0000;endFill=1;rounded=0;fontFamily=Verdana;" edge="1" parent="3">
          <mxGeometry x="-1375" y="-30" as="geometry">
            <mxPoint x="119.75862068965523" y="520" as="targetPoint"/>
            <mxPoint x="120" y="490" as="sourcePoint"/>
          </mxGeometry>
        </mxCell>
        <mxCell id="PegpGRT2m6IFtcztipyP-86" value="" style="edgeStyle=elbowEdgeStyle;elbow=horizontal;verticalAlign=bottom;endArrow=open;endSize=8;strokeColor=#FF0000;endFill=1;rounded=0;fontFamily=Verdana;" edge="1" parent="3">
          <mxGeometry x="-1375" y="30" as="geometry">
            <mxPoint x="119.75862068965523" y="580" as="targetPoint"/>
            <mxPoint x="120" y="550" as="sourcePoint"/>
          </mxGeometry>
        </mxCell>
        <mxCell id="PegpGRT2m6IFtcztipyP-87" value="" style="edgeStyle=elbowEdgeStyle;elbow=horizontal;verticalAlign=bottom;endArrow=open;endSize=8;strokeColor=#FF0000;endFill=1;rounded=0;fontFamily=Verdana;" edge="1" parent="3">
          <mxGeometry x="-1815" y="-30" as="geometry">
            <mxPoint x="119.75862068965523" y="640" as="targetPoint"/>
            <mxPoint x="120" y="610" as="sourcePoint"/>
          </mxGeometry>
        </mxCell>
        <mxCell id="PegpGRT2m6IFtcztipyP-88" value="" style="edgeStyle=elbowEdgeStyle;elbow=horizontal;verticalAlign=bottom;endArrow=open;endSize=8;strokeColor=#FF0000;endFill=1;rounded=0;fontFamily=Verdana;" edge="1" parent="3">
          <mxGeometry x="-2255" y="-90" as="geometry">
            <mxPoint x="119.75862068965523" y="700" as="targetPoint"/>
            <mxPoint x="120" y="670" as="sourcePoint"/>
          </mxGeometry>
        </mxCell>
        <mxCell id="PegpGRT2m6IFtcztipyP-89" value="(B) Control relay to enable 220VAC" style="fontFamily=Verdana;" vertex="1" parent="3">
          <mxGeometry x="20" y="700" width="220" height="50" as="geometry"/>
        </mxCell>
        <mxCell id="PegpGRT2m6IFtcztipyP-90" value="Repeat step (1) to (8) above" style="shape=process;whiteSpace=wrap;html=1;backgroundOutline=1;fontFamily=Verdana;" vertex="1" parent="3">
          <mxGeometry x="60" y="780" width="120" height="60" as="geometry"/>
        </mxCell>
        <mxCell id="PegpGRT2m6IFtcztipyP-91" value="" style="edgeStyle=elbowEdgeStyle;elbow=horizontal;verticalAlign=bottom;endArrow=open;endSize=8;strokeColor=#FF0000;endFill=1;rounded=0;fontFamily=Verdana;" edge="1" parent="3">
          <mxGeometry x="-2695" y="-130" as="geometry">
            <mxPoint x="119.75862068965534" y="780" as="targetPoint"/>
            <mxPoint x="120" y="750" as="sourcePoint"/>
          </mxGeometry>
        </mxCell>
        <mxCell id="PegpGRT2m6IFtcztipyP-92" value="(C) Control relay to enable 220VAC" style="fontFamily=Verdana;" vertex="1" parent="3">
          <mxGeometry x="20" y="870" width="220" height="50" as="geometry"/>
        </mxCell>
        <mxCell id="PegpGRT2m6IFtcztipyP-93" value="Repeat step (1) to (8) above" style="shape=process;whiteSpace=wrap;html=1;backgroundOutline=1;fontFamily=Verdana;" vertex="1" parent="3">
          <mxGeometry x="60" y="950" width="120" height="60" as="geometry"/>
        </mxCell>
        <mxCell id="PegpGRT2m6IFtcztipyP-94" value="" style="edgeStyle=elbowEdgeStyle;elbow=horizontal;verticalAlign=bottom;endArrow=open;endSize=8;strokeColor=#FF0000;endFill=1;rounded=0;fontFamily=Verdana;" edge="1" parent="3">
          <mxGeometry x="-3135" y="-80" as="geometry">
            <mxPoint x="119.75862068965534" y="950" as="targetPoint"/>
            <mxPoint x="120" y="920" as="sourcePoint"/>
          </mxGeometry>
        </mxCell>
        <mxCell id="PegpGRT2m6IFtcztipyP-95" value="" style="edgeStyle=elbowEdgeStyle;elbow=horizontal;verticalAlign=bottom;endArrow=open;endSize=8;strokeColor=#FF0000;endFill=1;rounded=0;fontFamily=Verdana;" edge="1" parent="3">
          <mxGeometry x="-3135" y="-160" as="geometry">
            <mxPoint x="119.75862068965534" y="870" as="targetPoint"/>
            <mxPoint x="120" y="840" as="sourcePoint"/>
          </mxGeometry>
        </mxCell>
        <mxCell id="PegpGRT2m6IFtcztipyP-102" value="" style="edgeStyle=elbowEdgeStyle;elbow=horizontal;verticalAlign=bottom;endArrow=open;endSize=8;strokeColor=#FF0000;endFill=1;rounded=0;fontFamily=Verdana;" edge="1" parent="3">
          <mxGeometry x="-3574.5" y="-110" as="geometry">
            <mxPoint x="120" y="1080" as="targetPoint"/>
            <mxPoint x="120.5" y="1010" as="sourcePoint"/>
          </mxGeometry>
        </mxCell>
        <mxCell id="PegpGRT2m6IFtcztipyP-113" value="Wait START cmd" style="rhombus;whiteSpace=wrap;html=1;fontFamily=Verdana;" vertex="1" parent="3">
          <mxGeometry x="60" y="40" width="120" height="80" as="geometry"/>
        </mxCell>
        <mxCell id="PegpGRT2m6IFtcztipyP-114" value="" style="edgeStyle=elbowEdgeStyle;elbow=horizontal;verticalAlign=bottom;endArrow=open;endSize=8;strokeColor=#FF0000;endFill=1;rounded=0;fontFamily=Verdana;" edge="1" parent="3">
          <mxGeometry x="-495" y="-160" as="geometry">
            <mxPoint x="119.75862068965534" y="150" as="targetPoint"/>
            <mxPoint x="120" y="120" as="sourcePoint"/>
          </mxGeometry>
        </mxCell>
        <mxCell id="PegpGRT2m6IFtcztipyP-115" value="YES" style="text;html=1;resizable=0;points=[];autosize=1;align=left;verticalAlign=top;spacingTop=-4;fontFamily=Verdana;" vertex="1" parent="3">
          <mxGeometry x="124.5" y="120" width="40" height="20" as="geometry"/>
        </mxCell>
        <mxCell id="PegpGRT2m6IFtcztipyP-116" value="NO" style="text;html=1;resizable=0;points=[];autosize=1;align=left;verticalAlign=top;spacingTop=-4;fontFamily=Verdana;" vertex="1" parent="3">
          <mxGeometry x="190" y="70" width="30" height="20" as="geometry"/>
        </mxCell>
        <mxCell id="PegpGRT2m6IFtcztipyP-117" value="" style="curved=1;endArrow=classic;html=1;entryX=0.5;entryY=0;entryDx=0;entryDy=0;fontFamily=Verdana;" edge="1" parent="3" target="PegpGRT2m6IFtcztipyP-113">
          <mxGeometry width="50" height="50" relative="1" as="geometry">
            <mxPoint x="210" y="90" as="sourcePoint"/>
            <mxPoint x="180" y="30" as="targetPoint"/>
            <Array as="points">
              <mxPoint x="260" y="90"/>
              <mxPoint x="210" y="40"/>
            </Array>
          </mxGeometry>
        </mxCell>
        <mxCell id="PegpGRT2m6IFtcztipyP-119" value="" style="curved=1;endArrow=classic;html=1;fontFamily=Verdana;entryX=1;entryY=1;entryDx=0;entryDy=0;" edge="1" parent="3" target="PegpGRT2m6IFtcztipyP-113">
          <mxGeometry width="50" height="50" relative="1" as="geometry">
            <mxPoint x="120" y="1050" as="sourcePoint"/>
            <mxPoint x="170" y="1000" as="targetPoint"/>
            <Array as="points">
              <mxPoint x="170" y="1050"/>
              <mxPoint x="190" y="1030"/>
              <mxPoint x="120" y="1000"/>
              <mxPoint x="260" y="930"/>
              <mxPoint x="220" y="1010"/>
              <mxPoint x="290" y="960"/>
              <mxPoint x="370" y="530"/>
            </Array>
          </mxGeometry>
        </mxCell>
        <mxCell id="4" value="DUT" style="swimlane;whiteSpace=wrap;fontFamily=Verdana;" parent="1" vertex="1">
          <mxGeometry x="720" y="130" width="280" height="1270" as="geometry"/>
        </mxCell>
        <mxCell id="PegpGRT2m6IFtcztipyP-118" value="POWER SWITCH" style="rounded=0;whiteSpace=wrap;html=1;fontFamily=Verdana;" vertex="1" parent="4">
          <mxGeometry x="80" y="70" width="120" height="840" as="geometry"/>
        </mxCell>
        <mxCell id="PegpGRT2m6IFtcztipyP-45" value="" style="endArrow=open;strokeColor=#FF0000;endFill=1;rounded=0;entryX=0;entryY=0.5;entryDx=0;entryDy=0;exitX=1;exitY=0.5;exitDx=0;exitDy=0;fontFamily=Verdana;" edge="1" parent="1" source="7" target="PegpGRT2m6IFtcztipyP-113">
          <mxGeometry relative="1" as="geometry">
            <mxPoint x="330.5" y="254.5" as="sourcePoint"/>
            <mxPoint x="560" y="150" as="targetPoint"/>
          </mxGeometry>
        </mxCell>
      </root>
    </mxGraphModel>
  </diagram>
</mxfile>
